<svg width="379" height="361" viewBox="0 0 379 361" fill="none" xmlns="http://www.w3.org/2000/svg">
<g opacity="0.1">
<mask id="mask0_1_470" style="mask-type:alpha" maskUnits="userSpaceOnUse" x="0" y="0" width="379" height="361">
<rect x="378.5" y="0.5" width="360" height="378" transform="rotate(90 378.5 0.5)" fill="url(#paint0_linear_1_470)" stroke="#6246E5"/>
</mask>
<g mask="url(#mask0_1_470)">
<path d="M135.506 453.92C66.1727 453.92 9.96616 397.635 9.96617 328.202C9.96617 258.769 66.1728 202.484 135.506 202.484C204.838 202.484 261.045 258.769 261.045 328.202C261.045 397.635 204.838 453.92 135.506 453.92Z" stroke="#6246E5"/>
<path d="M148.773 458.902C71.1969 458.902 8.30785 395.925 8.30786 318.237C8.30786 240.55 71.1969 177.573 148.773 177.573C226.349 177.573 289.238 240.55 289.238 318.237C289.238 395.925 226.349 458.902 148.773 458.902Z" stroke="#6246E5"/>
<path d="M159.553 463.885C74.6491 463.885 5.82012 394.959 5.82012 309.934C5.82013 224.909 74.6492 155.983 159.553 155.983C244.456 155.983 313.285 224.909 313.285 309.934C313.285 394.959 244.456 463.885 159.553 463.885Z" stroke="#6246E5"/>
<path d="M175.308 467.206C83.9931 467.206 9.96657 393.076 9.96658 301.63C9.96658 210.184 83.9931 136.054 175.308 136.054C266.623 136.054 340.649 210.184 340.649 301.63C340.649 393.076 266.623 467.206 175.308 467.206Z" stroke="#6246E5"/>
<path d="M190.648 470.528C93.1508 470.528 14.1124 391.378 14.1124 293.742C14.1124 196.105 93.1508 116.955 190.648 116.955C288.145 116.955 367.184 196.105 367.184 293.742C367.184 391.379 288.145 470.528 190.648 470.528Z" stroke="#6246E5"/>
<path d="M208.061 474.68C100.947 474.68 14.1124 387.723 14.1124 280.456C14.1124 173.188 100.947 86.2314 208.061 86.2314C315.176 86.2314 402.01 173.188 402.01 280.456C402.01 387.723 315.176 474.68 208.061 474.68Z" stroke="#6246E5"/>
</g>
</g>
<defs>
<linearGradient id="paint0_linear_1_470" x1="635.035" y1="10.6333" x2="466.383" y2="415.409" gradientUnits="userSpaceOnUse">
<stop stop-color="#747DEF"/>
<stop offset="1" stop-color="#5E3BE1"/>
</linearGradient>
</defs>
</svg>
